<svg width="250" height="98" viewBox="0 0 250 98" fill="none" xmlns="http://www.w3.org/2000/svg">
<g clip-path="url(#clip0_1_755)">
<path d="M22.5 45C10.0934 45 0 34.9066 0 22.5C0 10.0934 10.0934 0 22.5 0C34.9066 0 45 10.0934 45 22.5C45 34.9066 34.9066 45 22.5 45ZM22.5 3.24902C11.8852 3.24902 3.24902 11.8852 3.24902 22.5C3.24902 33.1148 11.8852 41.751 22.5 41.751C33.1148 41.751 41.751 33.1148 41.751 22.5C41.751 11.8852 33.1148 3.24902 22.5 3.24902Z" fill="black"/>
<path d="M17.4287 15L21.9167 29.6484H22.0833L26.5713 15H32L25.2288 35H18.7712L12 15H17.4287Z" fill="black"/>
</g>
<path d="M66.8366 0L74.9688 26.6335H75.2706L83.4027 0H93.2393L80.9702 36.3636H69.2692L57 0H66.8366Z" fill="black"/>
<path d="M106.614 36.8786C103.749 36.8786 101.287 36.2926 99.2275 35.1207C97.1796 33.937 95.5994 32.2917 94.4867 30.1847C93.3858 28.0658 92.8354 25.6096 92.8354 22.8161C92.8354 20.0107 93.3858 17.5545 94.4867 15.4474C95.5994 13.3286 97.1796 11.6832 99.2275 10.5114C101.287 9.32765 103.749 8.7358 106.614 8.7358C109.478 8.7358 111.935 9.32765 113.982 10.5114C116.042 11.6832 117.622 13.3286 118.723 15.4474C119.836 17.5545 120.392 20.0107 120.392 22.8161C120.392 25.6096 119.836 28.0658 118.723 30.1847C117.622 32.2917 116.042 33.937 113.982 35.1207C111.935 36.2926 109.478 36.8786 106.614 36.8786ZM106.667 30.3267C107.709 30.3267 108.591 30.0071 109.313 29.3679C110.035 28.7287 110.585 27.8409 110.964 26.7045C111.355 25.5682 111.55 24.2543 111.55 22.7628C111.55 21.2476 111.355 19.9219 110.964 18.7855C110.585 17.6491 110.035 16.7614 109.313 16.1222C108.591 15.483 107.709 15.1634 106.667 15.1634C105.59 15.1634 104.678 15.483 103.933 16.1222C103.199 16.7614 102.637 17.6491 102.246 18.7855C101.867 19.9219 101.678 21.2476 101.678 22.7628C101.678 24.2543 101.867 25.5682 102.246 26.7045C102.637 27.8409 103.199 28.7287 103.933 29.3679C104.678 30.0071 105.59 30.3267 106.667 30.3267Z" fill="black"/>
<path d="M137.571 36.8786C134.706 36.8786 132.244 36.2926 130.184 35.1207C128.137 33.937 126.556 32.2917 125.444 30.1847C124.343 28.0658 123.792 25.6096 123.792 22.8161C123.792 20.0107 124.343 17.5545 125.444 15.4474C126.556 13.3286 128.137 11.6832 130.184 10.5114C132.244 9.32765 134.706 8.7358 137.571 8.7358C140.435 8.7358 142.892 9.32765 144.939 10.5114C146.999 11.6832 148.579 13.3286 149.68 15.4474C150.793 17.5545 151.349 20.0107 151.349 22.8161C151.349 25.6096 150.793 28.0658 149.68 30.1847C148.579 32.2917 146.999 33.937 144.939 35.1207C142.892 36.2926 140.435 36.8786 137.571 36.8786ZM137.624 30.3267C138.666 30.3267 139.548 30.0071 140.27 29.3679C140.992 28.7287 141.542 27.8409 141.921 26.7045C142.312 25.5682 142.507 24.2543 142.507 22.7628C142.507 21.2476 142.312 19.9219 141.921 18.7855C141.542 17.6491 140.992 16.7614 140.27 16.1222C139.548 15.483 138.666 15.1634 137.624 15.1634C136.547 15.1634 135.635 15.483 134.89 16.1222C134.156 16.7614 133.594 17.6491 133.203 18.7855C132.824 19.9219 132.635 21.2476 132.635 22.7628C132.635 24.2543 132.824 25.5682 133.203 26.7045C133.594 27.8409 134.156 28.7287 134.89 29.3679C135.635 30.0071 136.547 30.3267 137.624 30.3267Z" fill="black"/>
<path d="M169.238 36.3636H155.797V0H169.22C172.925 0 176.115 0.727983 178.791 2.18395C181.478 3.62808 183.549 5.71141 185.005 8.43395C186.461 11.1447 187.189 14.388 187.189 18.1641C187.189 21.9519 186.461 25.2071 185.005 27.9297C183.561 30.6522 181.495 32.7415 178.808 34.1974C176.121 35.6416 172.931 36.3636 169.238 36.3636ZM164.586 28.8707H168.901C170.937 28.8707 172.659 28.5275 174.068 27.8409C175.488 27.1425 176.559 26.0121 177.281 24.4496C178.015 22.8752 178.382 20.7801 178.382 18.1641C178.382 15.5481 178.015 13.4647 177.281 11.9141C176.548 10.3516 175.464 9.22704 174.032 8.54048C172.612 7.84209 170.86 7.4929 168.776 7.4929H164.586V28.8707Z" fill="black"/>
<path d="M205.051 36.8786C202.187 36.8786 199.725 36.2926 197.665 35.1207C195.617 33.937 194.037 32.2917 192.924 30.1847C191.823 28.0658 191.273 25.6096 191.273 22.8161C191.273 20.0107 191.823 17.5545 192.924 15.4474C194.037 13.3286 195.617 11.6832 197.665 10.5114C199.725 9.32765 202.187 8.7358 205.051 8.7358C207.916 8.7358 210.372 9.32765 212.42 10.5114C214.48 11.6832 216.06 13.3286 217.161 15.4474C218.273 17.5545 218.83 20.0107 218.83 22.8161C218.83 25.6096 218.273 28.0658 217.161 30.1847C216.06 32.2917 214.48 33.937 212.42 35.1207C210.372 36.2926 207.916 36.8786 205.051 36.8786ZM205.105 30.3267C206.146 30.3267 207.028 30.0071 207.75 29.3679C208.472 28.7287 209.023 27.8409 209.401 26.7045C209.792 25.5682 209.987 24.2543 209.987 22.7628C209.987 21.2476 209.792 19.9219 209.401 18.7855C209.023 17.6491 208.472 16.7614 207.75 16.1222C207.028 15.483 206.146 15.1634 205.105 15.1634C204.027 15.1634 203.116 15.483 202.37 16.1222C201.636 16.7614 201.074 17.6491 200.683 18.7855C200.305 19.9219 200.115 21.2476 200.115 22.7628C200.115 24.2543 200.305 25.5682 200.683 26.7045C201.074 27.8409 201.636 28.7287 202.37 29.3679C203.116 30.0071 204.027 30.3267 205.105 30.3267Z" fill="black"/>
<path d="M236.008 36.8786C233.144 36.8786 230.682 36.2926 228.622 35.1207C226.574 33.937 224.994 32.2917 223.881 30.1847C222.78 28.0658 222.23 25.6096 222.23 22.8161C222.23 20.0107 222.78 17.5545 223.881 15.4474C224.994 13.3286 226.574 11.6832 228.622 10.5114C230.682 9.32765 233.144 8.7358 236.008 8.7358C238.873 8.7358 241.329 9.32765 243.377 10.5114C245.437 11.6832 247.017 13.3286 248.118 15.4474C249.23 17.5545 249.787 20.0107 249.787 22.8161C249.787 25.6096 249.23 28.0658 248.118 30.1847C247.017 32.2917 245.437 33.937 243.377 35.1207C241.329 36.2926 238.873 36.8786 236.008 36.8786ZM236.062 30.3267C237.103 30.3267 237.985 30.0071 238.707 29.3679C239.429 28.7287 239.98 27.8409 240.358 26.7045C240.749 25.5682 240.944 24.2543 240.944 22.7628C240.944 21.2476 240.749 19.9219 240.358 18.7855C239.98 17.6491 239.429 16.7614 238.707 16.1222C237.985 15.483 237.103 15.1634 236.062 15.1634C234.984 15.1634 234.073 15.483 233.327 16.1222C232.593 16.7614 232.031 17.6491 231.64 18.7855C231.262 19.9219 231.072 21.2476 231.072 22.7628C231.072 24.2543 231.262 25.5682 231.64 26.7045C232.031 27.8409 232.593 28.7287 233.327 29.3679C234.073 30.0071 234.984 30.3267 236.062 30.3267Z" fill="black"/>
<path d="M57.3906 68.1378V61H88.1257V68.1378H77.0994V97.3636H68.4347V68.1378H57.3906Z" fill="black"/>
<path d="M101.212 97.8786C98.3589 97.8786 95.8968 97.3163 93.8253 96.1918C91.7656 95.0554 90.1795 93.4396 89.0668 91.3445C87.9659 89.2374 87.4155 86.7339 87.4155 83.8338C87.4155 81.0166 87.9718 78.5545 89.0845 76.4474C90.1972 74.3286 91.7656 72.6832 93.7898 71.5114C95.8139 70.3277 98.1991 69.7358 100.945 69.7358C102.887 69.7358 104.662 70.0376 106.272 70.6413C107.882 71.245 109.273 72.1387 110.445 73.3224C111.616 74.5062 112.528 75.968 113.179 77.7081C113.83 79.4363 114.156 81.419 114.156 83.6562V85.8224H90.4517V80.7798H106.077C106.065 79.8565 105.846 79.0339 105.42 78.3118C104.994 77.5897 104.408 77.0275 103.662 76.625C102.928 76.2107 102.082 76.0036 101.123 76.0036C100.152 76.0036 99.2822 76.2225 98.5128 76.6605C97.7434 77.0867 97.1338 77.6726 96.6839 78.4183C96.2341 79.1522 95.9974 79.9867 95.9737 80.9219V86.0533C95.9737 87.166 96.1927 88.1425 96.6307 88.983C97.0687 89.8116 97.6901 90.4567 98.495 90.9183C99.3 91.38 100.259 91.6108 101.371 91.6108C102.141 91.6108 102.839 91.5043 103.467 91.2912C104.094 91.0781 104.633 90.7644 105.082 90.3501C105.532 89.9358 105.87 89.4268 106.094 88.8232L114.067 89.054C113.735 90.8414 113.007 92.398 111.883 93.7237C110.77 95.0376 109.308 96.0616 107.497 96.7955C105.686 97.5175 103.591 97.8786 101.212 97.8786Z" fill="black"/>
<path d="M142.4 78.4183L134.428 78.6314C134.345 78.0632 134.12 77.5601 133.753 77.1222C133.386 76.6723 132.907 76.3232 132.315 76.0746C131.735 75.8142 131.06 75.684 130.291 75.684C129.285 75.684 128.427 75.8852 127.716 76.2876C127.018 76.6901 126.675 77.2346 126.687 77.9212C126.675 78.4538 126.888 78.9155 127.326 79.3061C127.776 79.6967 128.575 80.0104 129.723 80.2472L134.979 81.2415C137.701 81.7623 139.725 82.6264 141.051 83.8338C142.389 85.0412 143.063 86.6392 143.075 88.6278C143.063 90.4981 142.507 92.1257 141.406 93.5107C140.317 94.8956 138.826 95.9728 136.932 96.7422C135.038 97.4998 132.872 97.8786 130.433 97.8786C126.539 97.8786 123.467 97.0796 121.218 95.4815C118.981 93.8717 117.702 91.7173 117.383 89.0185L125.959 88.8054C126.148 89.7997 126.639 90.5573 127.432 91.0781C128.225 91.599 129.238 91.8594 130.469 91.8594C131.581 91.8594 132.487 91.6522 133.185 91.2379C133.884 90.8236 134.239 90.2732 134.251 89.5866C134.239 88.9711 133.966 88.4799 133.434 88.1129C132.901 87.7341 132.067 87.4382 130.93 87.2251L126.172 86.3196C123.437 85.8224 121.401 84.9051 120.064 83.5675C118.726 82.218 118.063 80.5017 118.075 78.4183C118.063 76.5954 118.549 75.0388 119.531 73.7486C120.514 72.4465 121.91 71.4522 123.721 70.7656C125.532 70.0791 127.669 69.7358 130.131 69.7358C133.824 69.7358 136.736 70.5111 138.867 72.0618C140.998 73.6006 142.175 75.7195 142.4 78.4183Z" fill="black"/>
<path d="M162.744 70.0909V76.483H145.539V70.0909H162.744ZM149.143 63.5568H157.826V88.7876C157.826 89.3203 157.909 89.7524 158.074 90.0838C158.252 90.4034 158.506 90.6342 158.838 90.7763C159.169 90.9065 159.566 90.9716 160.027 90.9716C160.359 90.9716 160.708 90.942 161.075 90.8828C161.454 90.8118 161.738 90.7526 161.927 90.7053L163.241 96.973C162.827 97.0914 162.241 97.2393 161.483 97.4169C160.738 97.5945 159.844 97.7069 158.802 97.7543C156.766 97.849 155.02 97.6122 153.564 97.044C152.12 96.464 151.013 95.5644 150.244 94.3452C149.486 93.1259 149.119 91.593 149.143 89.7465V63.5568Z" fill="black"/>
<defs>
<clipPath id="clip0_1_755">
<rect width="45" height="45" fill="white"/>
</clipPath>
</defs>
</svg>
